<svg xmlns="http://www.w3.org/2000/svg" width="460" height="460">
    <symbol id="bluesky" viewBox="0 0 460 460">
        <path fill-rule="evenodd" clip-rule="evenodd" d="M119.968 427.892H340.032C388.516 427.892 427.892 388.516 427.892 340.124V119.968C427.892 71.484 388.608 32.2 340.124 32.2H119.968C71.484 32.2 32.2 71.484 32.2 119.968V340.124C32.2 388.608 71.484 427.892 119.968 427.892ZM230 222.64C217.58 196.88 183.632 148.856 152.076 125.12C129.26 108.008 92.368 94.76 92.552 136.896C92.552 145.268 97.336 207.46 100.188 217.58C110.025 252.699 145.769 261.635 177.583 256.232C121.888 265.722 107.837 297.081 138.368 328.44C196.387 388.022 221.783 313.621 228.333 294.433L228.344 294.4L228.448 294.096C229.572 290.809 230.092 289.289 230.092 290.628C230.092 289.289 230.612 290.809 231.736 294.096L231.84 294.4L231.89 294.544C238.5 313.818 263.91 387.906 321.816 328.44C352.354 297.074 338.198 265.709 282.566 256.226C314.389 261.642 350.155 252.712 359.996 217.58C362.848 207.552 367.632 145.268 367.632 136.896C367.632 94.76 330.74 108.008 307.924 125.12C276.368 148.856 242.42 196.88 230 222.64Z" fill="currentColor"/>
    </symbol>
</svg>
