<svg xmlns="http://www.w3.org/2000/svg" width="512" height="512" fill="none">
    <symbol id="threads" viewBox="0 0 512 512">
        <g clip-path="url(#clip0_2_2)">
            <path fill-rule="evenodd" clip-rule="evenodd" d="M407 0H105C47.25 0 0 47.25 0 105V407C0 464.75 47.25 512 105 512H407C464.75 512 512 464.75 512 407V105C512 47.25 464.75 0 407 0ZM332.9 241.56C334.41 242.2 335.9 242.88 337.36 243.58C358.07 253.51 373.21 268.55 381.15 287.06C392.22 312.88 393.23 354.93 359.65 388.48C333.98 414.13 302.82 425.7 258.62 426.01H258.42C208.7 425.67 170.46 408.93 144.78 376.28C121.92 347.23 110.13 306.8 109.74 256.12V255.88C110.13 205.2 121.92 164.77 144.78 135.72C170.46 103.07 208.7 86.34 258.42 85.99H258.62C308.44 86.34 347.1 103 373.54 135.53C386.59 151.58 396.17 170.93 402.26 193.38L373.67 201.01C368.64 182.77 361.02 167.12 350.91 154.68C330.28 129.31 299.2 116.29 258.52 115.99C218.12 116.29 187.57 129.25 167.71 154.5C149.11 178.14 139.5 212.29 139.14 256C139.5 299.71 149.11 333.86 167.71 357.5C187.57 382.75 218.12 395.71 258.52 396.01C294.93 395.74 319.03 387.08 339.07 367.05C361.95 344.19 361.52 316.15 354.21 299.09C349.9 289.05 342.11 280.7 331.6 274.36C329.04 293.44 323.24 308.59 314.07 320.28C301.99 335.67 284.69 344.09 262.62 345.29C245.92 346.21 229.84 342.18 217.36 333.94C202.6 324.19 193.96 309.28 193.04 291.93C191.22 257.75 218.34 233.15 260.52 230.72C275.5 229.86 289.5 230.54 302.46 232.74C300.74 222.22 297.26 213.89 292.07 207.85C284.94 199.57 273.91 195.32 259.3 195.23H258.9C247.17 195.23 231.24 198.51 221.09 213.91L196.69 197.17C210.97 175.5 233.89 165.06 259.49 165.23C303.86 165.51 330.28 193.2 332.9 241.56ZM222.4 290.31C223.35 308.08 242.56 316.38 261.04 315.34C279.15 314.34 299.69 307.24 303.19 263.5C293.8 261.44 283.47 260.37 272.43 260.37C269.08 260.37 265.66 260.47 262.18 260.67C231.78 262.42 221.7 277.13 222.4 290.31Z" fill="currentColor"/>
        </g>
        <defs>
            <clipPath id="clip0_2_2">
                <rect width="512" height="512" fill="white"/>
            </clipPath>
        </defs>
    </symbol>
</svg>
