<svg xmlns="http://www.w3.org/2000/svg" width="800" height="169" fill="none">
    <symbol id="codecademy" viewBox="0 0 800 169">
        <path d="M32.7308 116.527C31.2902 112.158 30.5756 106.642 30.5756 99.226C30.5756 91.8073 31.2902 86.2804 32.7308 81.9222C36.7555 69.4167 47.4168 62.5838 61.377 62.5838C71.7441 62.5838 79.9531 66.8018 85.4295 73.4918C85.8528 74.0691 85.9957 74.9408 85.2838 75.5209L76.2172 83.5198C75.4941 84.1055 74.7766 83.9598 74.1964 83.2339C70.7379 79.3101 67.1393 77.1241 61.3798 77.1241C55.1915 77.1241 50.4437 80.179 48.423 86.286C47.2795 89.7838 46.9852 93.8504 46.9852 99.2288C46.9852 104.607 47.2767 108.822 48.423 112.314C50.4409 118.27 55.1915 121.325 61.3798 121.325C67.1393 121.325 70.7379 119.142 74.1964 115.226C74.7766 114.489 75.4941 114.489 76.2172 115.072L85.2838 123.071C85.9957 123.651 85.8528 124.38 85.4295 125.109C79.9559 131.656 71.7469 135.868 61.377 135.868C47.4168 135.863 36.7555 129.024 32.7308 116.527Z" fill="currentColor"/>
        <path d="M347.303 116.527C345.863 112.158 345.148 106.642 345.148 99.226C345.148 91.8073 345.863 86.2804 347.303 81.9222C351.336 69.4167 361.986 62.5838 375.947 62.5838C386.316 62.5838 394.528 66.8018 399.996 73.4918C400.425 74.0691 400.574 74.9408 399.848 75.5209L390.778 83.5198C390.058 84.1055 389.343 83.9598 388.766 83.2339C385.313 79.3101 381.712 77.1241 375.947 77.1241C369.761 77.1241 365.008 80.179 362.995 86.286C361.841 89.7838 361.56 93.8504 361.56 99.2288C361.56 104.607 361.841 108.822 362.995 112.314C365.008 118.27 369.761 121.325 375.947 121.325C381.712 121.325 385.313 119.142 388.766 115.226C389.343 114.489 390.061 114.489 390.778 115.072L399.848 123.071C400.574 123.651 400.425 124.38 399.996 125.109C394.528 131.656 386.316 135.868 375.947 135.868C361.986 135.863 351.336 129.024 347.303 116.527Z" fill="currentColor"/>
        <path d="M710.88 134.268C710.017 134.268 709.443 133.69 709.443 132.81V92.393C709.443 83.3768 704.975 77.1213 696.335 77.1213C687.985 77.1213 683.092 83.374 683.092 92.393V132.81C683.092 133.688 682.512 134.268 681.654 134.268H668.403C667.54 134.268 666.96 133.69 666.96 132.81V92.393C666.96 83.3768 662.498 77.1213 653.871 77.1213C645.516 77.1213 640.617 83.374 640.617 92.393V132.81C640.617 133.688 640.043 134.268 639.177 134.268H625.931C625.063 134.268 624.494 133.69 624.494 132.81V65.6359C624.494 64.7615 625.063 64.1785 625.931 64.1785H639.177C640.043 64.1785 640.617 64.7615 640.617 65.6359V70.7256H640.763C643.79 66.3618 649.833 62.5838 659.045 62.5838C667.254 62.5838 673.877 65.9218 678.044 71.8859H678.193C683.518 66.0759 690.432 62.5838 700.368 62.5838C716.486 62.5838 725.564 73.6319 725.564 88.6094V132.808C725.564 133.688 724.984 134.268 724.118 134.268H710.88Z" fill="currentColor"/>
        <path d="M745.566 160.436C744.706 160.436 744.131 159.853 744.131 158.976V147.348C744.131 146.479 744.706 145.888 745.566 145.888H748.162C753.63 145.888 756.374 143.427 758.529 137.606L760.547 131.645L735.205 65.6331C734.913 64.7586 735.494 64.1757 736.362 64.1757H750.611C751.474 64.1757 752.052 64.7586 752.332 65.6331L768.033 111.434H768.316L783.293 65.6331C783.582 64.7586 784.159 64.1757 785.014 64.1757H798.688C799.56 64.1757 800.137 64.7586 799.843 65.6331L773.358 138.623C767.315 155.201 761.547 160.431 750.034 160.431L745.566 160.436Z" fill="currentColor"/>
        <path d="M98.675 116.533C97.0914 111.58 96.3712 106.931 96.3712 99.226C96.3712 91.5326 97.0914 86.8774 98.675 81.9447C102.562 69.7306 113.207 62.6034 127.313 62.6034C141.27 62.6034 151.92 69.7278 155.808 81.9447C157.383 86.8774 158.109 91.5326 158.109 99.226C158.109 106.931 157.383 111.58 155.808 116.533C151.917 128.738 141.27 135.86 127.313 135.86C113.207 135.863 102.562 128.741 98.675 116.533ZM140.264 112.172C141.419 108.542 141.704 105.193 141.704 99.2288C141.704 93.2815 141.419 90.078 140.264 86.3028C138.252 80.4929 133.787 77.1409 127.313 77.1409C120.841 77.1409 116.228 80.4929 114.219 86.3028C113.072 90.0808 112.781 93.2815 112.781 99.2288C112.781 105.193 113.072 108.542 114.219 112.172C116.228 117.993 120.844 121.325 127.313 121.325C133.787 121.322 138.252 117.99 140.264 112.172Z" fill="currentColor"/>
        <path d="M438.575 62.5838C427.199 62.5838 419.573 65.3444 413.954 69.4167C413.385 69.8595 413.236 70.577 413.673 71.3029L418.987 80.9049C419.433 81.6336 420.285 81.7793 421.011 81.1964C424.324 78.5843 429.069 76.3954 436.849 76.3954C448.191 76.3954 452.042 79.8371 452.238 87.4015H452.241V87.494C452.247 87.6705 452.247 87.8499 452.247 88.0377V110.723C452.247 118.719 446.779 122.637 436.849 122.637C429.069 122.637 424.898 119.736 424.898 113.923C424.898 107.376 429.509 104.461 439.87 104.461L443.02 104.467C443.883 104.467 444.464 103.884 444.464 103.018V93.6963C444.464 92.8275 443.883 92.2473 443.02 92.2473H442.328L437.28 92.2445C420.15 92.2445 409.486 99.2344 409.486 114.492C409.486 129.181 420.15 135.865 432.813 135.865C442.594 135.865 449.077 132.525 452.39 127.726H452.53V132.816C452.53 133.69 453.113 134.273 453.973 134.273H466.064C466.93 134.273 467.507 133.693 467.507 132.816V87.0147C467.51 69.8595 459.738 62.5838 438.575 62.5838Z" fill="currentColor"/>
        <path d="M266.572 92.2389C266.197 92.2389 265.95 92.4883 265.95 92.8639V93.2787V94.4951V102.197V103.231V103.828C265.95 104.204 266.197 104.456 266.572 104.456H266.931H302.222C303.231 104.456 303.809 103.878 303.809 103.012C303.809 91.6616 303.083 86.8606 301.505 81.9222C297.612 69.9997 287.25 62.5866 272.996 62.5866C259.176 62.5866 248.526 69.7082 244.633 81.9222C243.201 86.4289 242.329 91.9558 242.329 99.226C242.329 106.496 243.338 111.872 244.787 116.384C248.671 128.592 259.033 135.863 273.716 135.863C286.524 135.863 296.323 130.919 302.219 123.94C302.791 123.217 302.791 122.491 302.074 121.902L293.587 114.344C292.861 113.763 292.144 113.915 291.421 114.635C287.971 118.419 282.931 121.325 275.157 121.325C267.391 121.325 261.914 117.547 259.61 110.717C259.263 109.761 258.974 108.758 258.792 107.668H258.789C258.265 104.708 257.957 101.827 257.957 97.5948C258.069 93.6066 258.299 91.059 258.865 87.8219C258.87 87.777 258.879 87.7378 258.887 87.6958C258.893 87.6621 258.898 87.6369 258.904 87.6033V87.6061C259.041 86.8437 259.229 86.1263 259.462 85.4116C261.334 79.7418 266.516 76.3982 273.144 76.3982C279.624 76.3982 284.798 79.7418 286.67 85.4116C287.25 87.1661 287.533 88.9009 287.533 91.3785C287.533 91.9586 287.247 92.2445 286.67 92.2445H267.755L267.758 92.2417L266.572 92.2389Z" fill="currentColor"/>
        <path d="M228.955 35.4006H215.732C214.86 35.4006 214.285 35.9808 214.285 36.844V70.8152V98.9093V99.1335V99.3577V103.088H214.213C214.058 107.096 213.624 109.73 212.853 112.2C210.984 118.001 206.519 121.193 199.913 121.193C193.445 121.193 188.991 118.001 187.113 112.2C186.11 109.002 185.684 105.521 185.684 99.1335C185.684 92.749 186.11 89.2597 187.113 86.073C188.955 80.3808 193.265 77.1661 199.521 77.04H205.165C205.44 76.9727 205.62 76.7569 205.62 76.443L205.692 63.1695C205.692 62.8304 205.479 62.6034 205.165 62.5642L200.659 62.5473H195.362V62.5501C183.773 62.6735 175.289 68.3237 171.735 79.3802C170.009 84.7586 169.291 89.7025 169.291 99.1335C169.291 108.567 170.009 113.506 171.735 118.873C175.328 130.055 183.955 135.717 195.74 135.717C205.09 135.717 210.841 132.239 214.14 127.441H214.28V132.668C214.28 133.542 214.857 134.122 215.726 134.122H228.949C229.812 134.122 230.39 133.545 230.39 132.668V36.844C230.395 35.978 229.818 35.4006 228.955 35.4006Z" fill="currentColor"/>
        <path d="M575.604 92.2389C575.234 92.2389 574.982 92.4883 574.982 92.8639V93.2787V94.4951V102.197V103.231V103.828C574.982 104.204 575.234 104.456 575.604 104.456H575.968H611.262C612.268 104.456 612.846 103.878 612.846 103.012C612.846 91.6616 612.123 86.8606 610.545 81.9222C606.652 69.9997 596.287 62.5866 582.039 62.5866C568.216 62.5866 557.566 69.7082 553.673 81.9222C552.238 86.4289 551.369 91.9558 551.369 99.226C551.369 106.496 552.378 111.872 553.827 116.384C557.709 128.592 568.073 135.863 582.756 135.863C595.564 135.863 605.363 130.919 611.262 123.94C611.834 123.217 611.834 122.491 611.114 121.902L602.627 114.344C601.904 113.763 601.187 113.915 600.463 114.635C597.013 118.419 591.977 121.325 584.197 121.325C576.43 121.325 570.957 117.547 568.65 110.717C568.306 109.761 568.014 108.758 567.837 107.668H567.835C567.308 104.708 566.999 101.827 566.999 97.5948C567.106 93.6066 567.336 91.059 567.905 87.8219C567.916 87.777 567.922 87.7378 567.927 87.6958C567.933 87.6621 567.938 87.6369 567.944 87.6033V87.6061C568.087 86.8437 568.272 86.1263 568.505 85.4116C570.374 79.7418 575.559 76.3982 582.187 76.3982C588.667 76.3982 593.841 79.7418 595.713 85.4116C596.29 87.1661 596.579 88.9009 596.579 91.3785C596.579 91.9586 596.29 92.2445 595.713 92.2445H576.798V92.2417L575.604 92.2389Z" fill="currentColor"/>
        <path d="M525.425 35.4006C524.559 35.4006 523.981 35.9836 523.981 36.8468V70.8657V99.0046V99.453V103.189C523.754 107.202 523.317 109.84 522.546 112.312C520.674 118.124 516.201 121.325 509.589 121.325C503.115 121.325 498.653 118.124 496.773 112.312C495.772 109.108 495.335 105.624 495.335 99.226C495.335 92.8331 495.767 89.3353 496.773 86.1459C498.614 80.4452 502.933 77.2558 509.2 77.1297L514.853 77.1325C515.719 77.1325 516.296 76.5523 516.296 75.6863V64.0356C516.296 63.1667 515.719 62.5866 514.853 62.5866H514.161L505.615 62.5838H505.416H505.231H505.035C493.432 62.7071 484.934 68.3685 481.378 79.4419C479.648 84.8286 478.931 89.7754 478.931 99.2204C478.931 108.668 479.648 113.618 481.378 118.993C484.974 130.187 493.617 135.86 505.419 135.86C514.78 135.86 520.54 132.379 523.847 127.572L523.987 132.805C523.987 133.685 524.564 134.262 525.433 134.262H538.678C539.542 134.262 540.122 133.688 540.122 132.805V36.8468C540.111 35.9808 539.533 35.4006 538.673 35.4006H525.425Z" fill="currentColor"/>
        <path d="M346.221 154.091V167.339C346.221 168.211 346.799 168.788 347.665 168.788H396.756C397.634 168.788 398.214 168.208 398.214 167.339V154.091C398.214 153.231 397.634 152.651 396.756 152.651H347.665C346.799 152.651 346.221 153.231 346.221 154.091Z" fill="currentColor"/>
        <path d="M333.758 1.09305C333.735 1.07063 333.721 1.0426 333.702 1.02298C333.699 1.02018 333.696 1.02018 333.696 1.02018C333.444 0.770739 333.085 0.625 332.659 0.625H332.642H1.7444C1.63509 0.625 1.5314 0.636211 1.4305 0.653027C1.40247 0.658632 1.37725 0.669843 1.34642 0.675448C1.28196 0.692264 1.21189 0.706278 1.15303 0.731502C1.14182 0.734304 1.13342 0.73991 1.12501 0.745515C0.612118 0.955716 0.298218 1.43497 0.298218 2.06838V2.07398V167.32V167.331C0.298218 167.835 0.494405 168.231 0.825121 168.483C0.850345 168.508 0.872766 168.531 0.906399 168.547V168.55C1.13622 168.696 1.41649 168.774 1.7444 168.774H332.64H332.656C333.144 168.774 333.539 168.587 333.789 168.264C333.985 168.023 334.1 167.707 334.1 167.328V167.317V2.07398V2.06838C334.1 1.6732 333.974 1.33968 333.758 1.09305ZM17.8598 152.645C17.7561 152.645 17.6552 152.637 17.5655 152.623C17.5375 152.617 17.5067 152.603 17.4786 152.595C17.4114 152.581 17.3441 152.567 17.2824 152.541C17.2712 152.538 17.2656 152.53 17.2544 152.527C16.7443 152.32 16.4332 151.843 16.4304 151.216V31.4404V18.1978C16.4304 17.5616 16.7443 17.0879 17.2544 16.8749C17.2684 16.8721 17.2768 16.8637 17.2852 16.8609C17.3441 16.8385 17.5347 16.7908 17.5655 16.7824C17.6608 16.7684 17.7617 16.76 17.8654 16.76H316.53C316.636 16.76 316.734 16.7684 316.83 16.7824C316.861 16.7908 316.889 16.802 316.914 16.8105C316.981 16.8245 317.048 16.8385 317.11 16.8637C317.124 16.8665 317.13 16.8749 317.141 16.8777C317.654 17.0879 317.965 17.5644 317.965 18.2006V151.218C317.962 151.849 317.648 152.325 317.144 152.533C317.132 152.536 317.127 152.544 317.113 152.547C317.054 152.569 316.984 152.586 316.919 152.6C316.889 152.609 316.863 152.623 316.833 152.628C316.737 152.645 316.645 152.651 316.541 152.651H17.8598V152.645Z" fill="currentColor"/>
    </symbol>
</svg>
