<svg width="600" height="150" viewBox="0 0 600 150" fill="none" xmlns="http://www.w3.org/2000/svg">
    <symbol id="coursera" viewBox="0 0 600 150">
        <path d="M117.913 74.875C117.913 55.574 133.836 40 153.772 40C173.842 40 189.764 55.574 189.764 74.875C189.764 94.042 173.842 109.882 153.772 109.882C133.836 109.882 117.913 93.909 117.913 74.875ZM172.638 74.875C172.638 65.292 164.208 56.771 153.772 56.771C143.469 56.771 135.174 65.292 135.174 74.875C135.174 84.592 143.603 93.111 153.772 93.111C164.208 93.111 172.638 84.592 172.638 74.875Z" fill="currentColor"/>
        <path d="M478.15 75.406C478.15 54.242 495.476 40 511.186 40C521.933 40 528.11 43.194 532.272 49.452L533.884 41.199H550V108.552H533.884L531.869 101.629C527.168 106.688 521.259 109.882 511.323 109.882C495.61 109.882 478.15 96.305 478.15 75.406ZM532.945 75.273C532.945 65.026 524.482 56.771 514.009 56.771C503.668 56.771 495.341 65.159 495.341 75.542C495.341 84.858 503.802 93.244 514.009 93.244C524.616 93.111 532.945 84.725 532.945 75.273Z" fill="currentColor"/>
        <path d="M458.833 49.423V41.702H441.732V107.913H458.833V72.189C458.833 61.46 464.054 55.833 473.32 55.833C473.972 55.833 474.496 55.833 475.017 55.964L478.15 40C469.275 40.131 462.878 43.14 458.833 49.423Z" fill="currentColor"/>
        <path d="M284.158 49.423V41.702H266.535L266.67 107.913H284.295L284.158 72.189C284.158 61.46 289.54 55.833 298.959 55.833C299.631 55.833 300.168 55.833 300.709 55.964L303.937 40C294.787 40.131 288.196 43.14 284.158 49.423Z" fill="currentColor"/>
        <path d="M196.654 82.217V40.984H213.863V80.088C213.863 88.733 218.593 93.787 226.869 93.787C236.065 93.787 241.452 88.069 241.452 77.163V40.984H258.661V108.284H241.452V100.439C237.379 106.822 230.811 109.881 221.746 109.881C206.244 110.014 196.654 98.709 196.654 82.217Z" fill="currentColor"/>
        <path d="M365.945 74.81C365.945 55.943 379.566 39.868 400.93 40.001C420.823 40.001 434.843 55.943 434.843 74.542C434.843 76.403 434.709 78.396 434.442 80.124L383.037 79.991C385.041 88.095 391.715 93.807 401.73 93.94C407.871 93.94 414.415 91.681 418.42 86.632L430.305 96.199C424.161 104.833 413.346 109.882 401.864 109.882C381.567 109.617 365.945 94.471 365.945 74.81ZM417.353 67.901C416.416 61.124 409.208 55.81 400.93 55.81C392.785 55.81 386.241 60.593 383.704 67.768L417.353 67.901Z" fill="currentColor"/>
        <path d="M303.937 94L319.459 85.927C322.001 91.485 327.219 94.661 334.443 94.661C341.134 94.661 343.677 92.543 343.677 89.632C343.677 78.911 306.747 85.398 306.747 60.779C306.747 47.148 318.79 40 333.641 40C344.88 40 354.915 44.897 360.401 54.163L345.013 62.236C342.741 57.736 338.458 55.221 332.972 55.221C327.62 55.221 325.078 57.075 325.078 60.118C325.078 70.574 362.008 63.955 362.008 88.971C362.008 101.941 351.304 109.882 334.042 109.882C319.325 109.75 309.022 104.985 303.937 94Z" fill="currentColor"/>
        <path d="M50 74.515C50 55.354 65.7897 40 85.5599 40C98.2976 40 109.311 46.301 115.68 55.747L100.819 64.279C97.3687 59.555 91.9288 56.406 85.5599 56.406C75.343 56.406 67.1165 64.804 67.1165 74.384C67.1165 83.962 75.4755 92.36 85.5599 92.36C92.1941 92.36 98.0323 88.949 101.217 83.831L115.945 92.491C109.709 102.334 98.4302 108.897 85.5599 108.897C65.7897 109.028 50 93.281 50 74.515Z" fill="currentColor"/>
    </symbol>
</svg>
